<svg version="1.2" xmlns="http://www.w3.org/2000/svg" viewBox="0 0 2000 500" width="2000" height="500">
	<defs>
		<linearGradient id="g1" x2="1" gradientUnits="userSpaceOnUse" gradientTransform="matrix(49.256,0,0,118.729,438.891,105.194)">
			<stop offset="0" stop-color="#00639e"/>
			<stop offset=".709" stop-color="#008bbf"/>
			<stop offset=".995" stop-color="#00b6f1"/>
		</linearGradient>
		<linearGradient id="g2" x2="1" gradientUnits="userSpaceOnUse" gradientTransform="matrix(121.08,0,0,42.985,367.249,105.128)">
			<stop offset="0" stop-color="#003e56"/>
			<stop offset=".653" stop-color="#00517b"/>
			<stop offset=".995" stop-color="#008bbf"/>
		</linearGradient>
		<linearGradient id="g3" x2="1" gradientUnits="userSpaceOnUse" gradientTransform="matrix(273.905,0,0,206.243,123.77,207.485)">
			<stop offset=".005" stop-color="#00b6f1"/>
			<stop offset=".566" stop-color="#008bbf"/>
			<stop offset="1" stop-color="#00639e"/>
		</linearGradient>
		<radialGradient id="g4" cx="0" cy="0" r="1" gradientUnits="userSpaceOnUse" gradientTransform="matrix(327.093,0,0,327.093,81.27,199.79)">
			<stop offset=".005" stop-color="#008bbf"/>
			<stop offset=".347" stop-color="#00517b"/>
			<stop offset="1" stop-color="#003e56"/>
		</radialGradient>
	</defs>
	<style>
		.s0 { fill: url(#g1) } 
		.s1 { fill: url(#g2) } 
		.s2 { fill: url(#g3) } 
		.s3 { fill: url(#g4) } 
		.s4 { fill: #00aeef } 
		.s5 { fill: #000000 } 
		.s6 { fill: #003e56 } 
	</style>
	<g id="Layer 1">
		<path id="&lt;Path&gt;" class="s0" d="m488.15 105.19l-49.26 63.94 18.81 54.79z"/>
		<path id="&lt;Path&gt;" class="s1" d="m488.33 105.13l-68.31 42.98-52.77-23.9z"/>
		<path id="&lt;Path&gt;" class="s2" d="m123.77 382.49c28.22 19.68 62.53 31.24 99.54 31.24 96.3 0 174.37-78.06 174.37-174.37 0-10.89-1.05-21.53-2.96-31.87-48.34 65.02-165.64 203.31-270.95 175z"/>
		<path id="&lt;Path&gt;" class="s3" d="m387.69 181.17c-23.96-67.68-88.49-116.17-164.38-116.17-96.3 0-174.36 78.06-174.36 174.36 0 13.55 1.56 26.72 4.48 39.37-13.21 2.02-26.96-11.4-26.96-11.4 9.51 17.86 22.57 29.96 35.49 38.16q0.09 0.23 0.18 0.46c5.61 3.36 11.65 6.39 18.13 8.97 11.34 4.6 20.87 6.46 25.42 7.15 60.18 10.41 150.25-16.69 282-140.9z"/>
		<path id="BLUEMOON TRAVEL" class="s4" aria-label="BLUEMOON TRAVEL"  d="m575.7 325h-47.4v-106.9h42.8q11.4 0 18.5 4.6 7 4.5 10.3 11.5 3.3 6.9 3.3 13.9 0 9-4.1 14.9-4 6-11.1 8v-3.7q10 2 15 9.2 5.1 7.2 5.1 16.1 0 9.6-3.6 16.9-3.5 7.3-10.7 11.4-7.2 4.1-18.1 4.1zm-26.9-46.3v27.3h24.8q4.1 0 7.3-1.7 3.2-1.8 5-4.9 1.8-3.2 1.8-7.5 0-3.8-1.5-6.8-1.6-2.9-4.8-4.6-3.1-1.8-7.8-1.8zm0-41.7v22.8h22q3.4 0 6.1-1.2 2.7-1.1 4.2-3.6 1.6-2.5 1.6-6.4 0-4.9-3.1-8.3-3-3.3-8.8-3.3zm22.9 88h-47.3v-106.9h42.7q11.5 0 18.5 4.6 7.1 4.5 10.3 11.5 3.3 6.9 3.3 13.9 0 9-4.1 14.9-4 6-11 8v-3.7q10 2 15 9.2 5 7.2 5 16.1 0 9.6-3.6 16.9-3.4 7.3-10.6 11.4-7.2 4.1-18.2 4.1zm-26.8-46.3v27.3h24.8q4.1 0 7.2-1.7 3.2-1.8 5-4.9 1.9-3.2 1.9-7.5 0-3.8-1.6-6.8-1.5-2.9-4.7-4.6-3.2-1.8-7.8-1.8zm0-41.7v22.8h21.9q3.5 0 6.1-1.2 2.7-1.1 4.3-3.6 1.5-2.5 1.5-6.4 0-4.9-3-8.3-3.1-3.3-8.9-3.3zm149.2 88h-66.2v-106.9h20.1v88h46.1zm-4 0h-66.2v-106.8h20.2v88h46zm63.8 2.2q-13 0-22.8-5.2-9.7-5.2-15.2-14.7-5.5-9.5-5.5-22.4v-66.6l20.5-0.2v66.7q0 5.2 1.7 9.5 1.8 4.3 4.9 7.5 3.2 3.1 7.4 4.8 4.2 1.6 9 1.6 4.9 0 9-1.7 4.2-1.7 7.4-4.8 3.1-3.1 4.8-7.4 1.8-4.3 1.8-9.5v-66.7h20.5v66.8q0 12.9-5.5 22.4-5.5 9.5-15.3 14.7-9.8 5.2-22.7 5.2zm-4 0q-12.9 0-22.7-5.2-9.8-5.2-15.3-14.7-5.4-9.5-5.4-22.4v-66.6l20.4-0.2v66.7q0 5.2 1.8 9.5 1.8 4.3 4.9 7.5 3.2 3.1 7.4 4.8 4.2 1.6 8.9 1.6 4.9 0 9.1-1.7 4.2-1.7 7.4-4.8 3.1-3.1 4.8-7.4 1.8-4.3 1.8-9.5v-66.7h20.4v66.8q0 12.9-5.5 22.4-5.4 9.5-15.2 14.7-9.8 5.2-22.8 5.2zm142.2-2.2h-69.7v-106.9h69.7v18.9h-49.5v22.8h40.6v18.9h-40.6v27.4h49.5zm-3.9 0h-69.7v-106.8h69.7v18.8h-49.6v22.9h40.7v18.8h-40.7v27.5h49.6zm45 0h-18.8v-106.9h18.1l35.3 71 35.3-71h18.1v106.9h-18.8v-63.8l-31 63.8h-7.2l-31-63.8zm-3.9 0h-18.8v-106.9h18.1l35.3 70.9 35.3-70.9h18.1v106.9h-18.8v-63.9l-31 63.9h-7.2l-31-63.9zm162.9 2.3q-16 0-27.6-7-11.6-7-17.9-19.5-6.3-12.6-6.3-29.2 0-16.6 6.3-29.2 6.3-12.5 17.9-19.5 11.6-7 27.6-7 16.1 0 27.6 7 11.7 7 17.9 19.5 6.3 12.6 6.3 29.2 0 16.6-6.3 29.2-6.2 12.5-17.9 19.5-11.5 7-27.6 7zm0-19q10.2 0.1 17-4.4 6.7-4.6 10.1-12.9 3.4-8.3 3.4-19.4 0-11.1-3.4-19.3-3.4-8.2-10.1-12.7-6.8-4.5-17-4.7-10.1-0.1-16.9 4.4-6.7 4.5-10.2 12.8-3.3 8.4-3.3 19.5 0 11.1 3.3 19.3 3.5 8.2 10.2 12.7 6.8 4.5 16.9 4.7zm-3.9 19q-16 0-27.7-7-11.5-7-17.8-19.5-6.3-12.6-6.3-29.2 0-16.6 6.3-29.2 6.3-12.5 17.8-19.5 11.7-7 27.7-7 16.1 0 27.6 7 11.7 7 17.9 19.5 6.3 12.6 6.3 29.2 0 16.6-6.3 29.2-6.2 12.5-17.9 19.5-11.5 7-27.6 7zm0-19q10.2 0.1 16.9-4.4 6.8-4.6 10.1-12.9 3.5-8.3 3.5-19.4 0-11.1-3.5-19.3-3.3-8.2-10.1-12.7-6.7-4.5-16.9-4.7-10.1-0.1-16.9 4.4-6.8 4.5-10.2 12.8-3.3 8.4-3.3 19.5 0 11.1 3.3 19.3 3.4 8.2 10.2 12.7 6.8 4.5 16.9 4.7zm119.9 19q-16 0-27.6-7-11.6-7-17.9-19.5-6.3-12.6-6.3-29.2 0-16.6 6.3-29.2 6.3-12.5 17.9-19.5 11.6-7 27.6-7 16.1 0 27.6 7 11.7 7 17.9 19.5 6.3 12.6 6.3 29.2 0 16.6-6.3 29.2-6.2 12.5-17.9 19.5-11.5 7-27.6 7zm0-19q10.2 0.1 17-4.4 6.7-4.6 10.1-12.9 3.4-8.3 3.4-19.4 0-11.1-3.4-19.3-3.4-8.2-10.1-12.7-6.8-4.5-17-4.7-10.1-0.1-16.9 4.4-6.7 4.5-10.2 12.8-3.3 8.4-3.3 19.5 0 11.1 3.3 19.3 3.5 8.2 10.2 12.7 6.8 4.5 16.9 4.7zm-3.9 19q-16 0-27.7-7-11.5-7-17.8-19.5-6.3-12.6-6.3-29.2 0-16.6 6.3-29.2 6.3-12.5 17.8-19.5 11.7-7 27.7-7 16.1 0 27.6 7 11.7 7 17.9 19.5 6.3 12.6 6.3 29.2 0 16.6-6.3 29.2-6.2 12.5-17.9 19.5-11.5 7-27.6 7zm0-19q10.2 0.1 16.9-4.4 6.8-4.6 10.1-12.9 3.5-8.3 3.5-19.4 0-11.1-3.5-19.3-3.3-8.2-10.1-12.7-6.7-4.5-16.9-4.7-10.1-0.1-16.9 4.4-6.8 4.5-10.2 12.8-3.3 8.4-3.3 19.5 0 11.1 3.3 19.3 3.4 8.2 10.2 12.7 6.8 4.5 16.9 4.7zm95.6 16.7h-20.5v-106.9h20.5l46.4 71.3v-71.3h20.5v106.9h-20.5l-46.4-71.2zm-4 0h-20.4v-106.9h20.4l46.5 71.2v-71.2h20.5v106.9h-20.5l-46.5-71.3z"/>
		<path id="BLUEMOON TRAVEL" class="s5" aria-label="BLUEMOON TRAVEL"  d=""/>
		<path id="BLUEMOON TRAVEL" class="s6" aria-label="BLUEMOON TRAVEL"  d="m1470.3 325h-20.2v-88h-33.7v-18.9h87.6v18.9h-33.7zm-3.9 0h-20.2v-88.1h-33.7v-18.8h87.6v18.8h-33.7zm73.1 0h-20.2v-106.8h45.2q1.5 0 4.1 0.1 2.7 0.1 4.8 0.5 9.6 1.4 15.6 6.3 6.2 4.8 9.1 12.1 2.9 7.3 2.9 16.3 0 13.4-6.7 23-6.7 9.5-20.9 11.7l-8.9 0.6h-25zm63 0h-22.9l-21.1-43.5 20.8-4zm-62.9-88v33h24q1.6 0 3.4-0.2 1.9-0.1 3.5-0.6 4-1.1 6.3-3.7 2.2-2.7 3-5.9 0.9-3.2 0.9-6.1 0-2.9-0.9-6.1-0.8-3.3-3-5.9-2.3-2.6-6.3-3.8-1.6-0.4-3.5-0.6-1.8-0.1-3.4-0.1zm-3.9 88h-20.2v-106.9h45.2q1.5 0 4.1 0.2 2.7 0.1 4.8 0.4 9.5 1.5 15.6 6.3 6.2 4.9 9.1 12.2 2.9 7.3 2.9 16.3 0 13.4-6.7 23-6.7 9.5-20.9 11.7l-8.9 0.6h-25zm63 0h-22.9l-21.1-43.5 20.8-4zm-62.9-88v32.9h24q1.6 0 3.4-0.1 1.9-0.2 3.4-0.6 4.1-1.1 6.3-3.7 2.3-2.7 3.1-5.9 0.9-3.3 0.9-6.1 0-2.9-0.9-6.1-0.8-3.3-3.1-5.9-2.2-2.7-6.3-3.8-1.5-0.4-3.4-0.6-1.8-0.1-3.4-0.1zm101.1 88h-20.8l32.7-106.9h30.1l32.7 106.9h-20.8l-29.1-94.3h3.8zm55.3-22.2h-56.4v-18.9h56.4zm-59.2 22.3h-20.8l32.7-106.9h30.1l32.7 106.9h-20.8l-29.1-94.3h3.9zm55.2-22.2h-56.4v-18.9h56.4zm83.5 22.3h-30.2l-32.6-106.9h20.8l26.7 87.9 27.1-87.9h20.8zm-3.9 0h-30.1l-32.7-106.9h20.8l26.7 87.9 27.2-87.9h20.8zm120.5 0h-69.8v-106.9h69.8v18.9h-49.6v22.8h40.7v18.9h-40.7v27.5h49.6zm-3.9 0h-69.8v-106.9h69.8v18.8h-49.6v22.9h40.7v18.8h-40.7v27.5h49.6zm93.8 0h-66.2v-106.9h20.2v88.1h46zm-3.9 0h-66.2v-106.9h20.2v88h46z"/>
	</g>
</svg>